<?xml version="1.0" encoding="UTF-8"?>
<svg version="1.1" xmlns="http://www.w3.org/2000/svg" width="512" height="512">
<path d="M0 0 C16.83 0 33.66 0 51 0 C51 11.55 51 23.1 51 35 C53.64 35 56.28 35 59 35 C96.05239518 39.50565607 131.37895626 56.36819555 160.14453125 79.6875 C162.39713103 81.51176685 164.66621187 83.28215111 167 85 C166.3875012 88.23031416 165.30155659 90.26136227 163.33203125 92.87890625 C162.49696045 93.99942383 162.49696045 93.99942383 161.64501953 95.14257812 C161.04028809 95.94115234 160.43555664 96.73972656 159.8125 97.5625 C158.5349926 99.27201314 157.25765373 100.98165222 155.98046875 102.69140625 C155.32224121 103.56812988 154.66401367 104.44485352 153.98583984 105.34814453 C150.84117154 109.54747907 147.73363107 113.77395929 144.625 118 C144.04322998 118.78938965 143.46145996 119.5787793 142.86206055 120.39208984 C138.55018486 126.24370073 134.26107024 132.11125386 130 138 C125.79865761 136.25899707 122.64005383 133.31722856 119.1875 130.4375 C104.69576242 118.63164707 88.03980552 110.01445696 70.6875 103.1875 C69.98326904 102.9095459 69.27903809 102.6315918 68.5534668 102.34521484 C62.74046889 100.12900518 57.08110399 98.65848291 51 97 C51.33 130.66 51.66 164.32 52 199 C65.365 202.465 65.365 202.465 79 206 C83.63161821 207.35673665 88.18779335 208.70933774 92.75 210.25 C93.84650879 210.61931641 94.94301758 210.98863281 96.07275391 211.36914062 C117.22919485 218.72313047 135.74834738 228.49753704 152 244 C152.93585938 244.82371094 152.93585938 244.82371094 153.890625 245.6640625 C168.33677297 258.87382844 176.21013728 281.3320308 177.12402344 300.6171875 C178.02023 333.89853732 170.46861368 362.64587402 147.265625 387.6640625 C126.22374849 409.35896276 97.31710663 420.10163056 68 425 C66.82050781 425.19722656 66.82050781 425.19722656 65.6171875 425.3984375 C60.65664094 426.11820308 56.11014966 426 51 426 C51 437.88 51 449.76 51 462 C34.17 462 17.34 462 0 462 C-0.33 449.79 -0.66 437.58 -1 425 C-4.526875 424.46375 -8.05375 423.9275 -11.6875 423.375 C-56.67087496 416.06796241 -94.82235441 395.42298131 -129 366 C-127.52745531 361.32096745 -124.77835457 358.14638565 -121.5625 354.5625 C-117.44398839 349.86932674 -113.448689 345.12402712 -109.625 340.1875 C-105.29400033 334.6309724 -100.92846416 329.10429584 -96.5 323.625 C-95.90010254 322.86856201 -95.30020508 322.11212402 -94.68212891 321.33276367 C-94.11671387 320.63771729 -93.55129883 319.9426709 -92.96875 319.2265625 C-92.21754883 318.29191162 -92.21754883 318.29191162 -91.45117188 317.33837891 C-90 316 -90 316 -87 316 C-85.046875 317.58203125 -85.046875 317.58203125 -82.75 319.8125 C-72.21231754 329.54076627 -60.56469072 337.30263143 -47.90380859 343.99316406 C-46.12160737 344.93568751 -44.35132324 345.90064856 -42.58203125 346.8671875 C-29.3960107 353.82347032 -15.35007383 358.0863435 -1 362 C-0.505 309.53 -0.505 309.53 0 256 C-5.28 254.68 -10.56 253.36 -16 252 C-50.54309022 241.56926317 -86.00380945 228.02991476 -104.25 194.6875 C-107.73986038 188.03127048 -110.26336081 181.33044542 -112 174 C-112.22429687 173.06929687 -112.44859375 172.13859375 -112.6796875 171.1796875 C-118.06080489 143.5369612 -113.04090767 113.82341468 -98 90 C-95.126834 85.89473759 -92.11405468 81.92494776 -89 78 C-88.46246094 77.31808594 -87.92492187 76.63617188 -87.37109375 75.93359375 C-67.63814137 51.89918036 -34.22093442 37.71949962 -4 34 C-2.68 34 -1.36 34 0 34 C0 22.78 0 11.56 0 0 Z M-25 107 C-26.03253906 107.76763672 -26.03253906 107.76763672 -27.0859375 108.55078125 C-34.8223586 114.76066716 -41.39324682 124.05821472 -43 134 C-44.09144347 145.70573125 -43.51236747 155.76859235 -35.8125 165.1875 C-25.84622588 175.61343456 -13.54710188 181.48429937 0 186 C0 156.3 0 126.6 0 96 C-9.16614119 96 -17.86120248 101.58574345 -25 107 Z M51 269 C51 301.01 51 333.02 51 366 C57.06740649 365.32584372 62.18843619 364.64027332 67.875 362.8125 C68.56480957 362.59110352 69.25461914 362.36970703 69.96533203 362.14160156 C83.85397263 357.50450945 95.06699712 349.57993295 102.59375 336.81640625 C107.45657229 327.07725384 108.62254431 316.37746205 105.875 305.8125 C101.06841602 291.86222837 90.45410614 284.57042616 77.82421875 278.22265625 C64.89100579 271.78976431 64.89100579 271.78976431 51 269 Z " fill="#71BC38" transform="translate(232,25)"/>
</svg>
